<?xml version="1.0" encoding="UTF-8" standalone="no"?>
<!-- Generator: Adobe Illustrator 19.1.0, SVG Export Plug-In . SVG Version: 6.00 Build 0)  -->

<svg
   xmlns:dc="http://purl.org/dc/elements/1.1/"
   xmlns:cc="http://creativecommons.org/ns#"
   xmlns:rdf="http://www.w3.org/1999/02/22-rdf-syntax-ns#"
   xmlns:svg="http://www.w3.org/2000/svg"
   xmlns="http://www.w3.org/2000/svg"
   xmlns:sodipodi="http://sodipodi.sourceforge.net/DTD/sodipodi-0.dtd"
   xmlns:inkscape="http://www.inkscape.org/namespaces/inkscape"
   version="1.1"
   id="Layer_1"
   x="0px"
   y="0px"
   viewBox="0 0 150 150"
   enable-background="new 0 0 150 150"
   xml:space="preserve"
   sodipodi:docname="arkzilla.svg"
   inkscape:version="0.92.2 5c3e80d, 2017-08-06"><metadata
     id="metadata1462"><rdf:RDF><cc:Work
         rdf:about=""><dc:format>image/svg+xml</dc:format><dc:type
           rdf:resource="http://purl.org/dc/dcmitype/StillImage" /><dc:title /></cc:Work></rdf:RDF></metadata><defs
     id="defs1460" /><sodipodi:namedview
     pagecolor="#ffffff"
     bordercolor="#666666"
     borderopacity="1"
     objecttolerance="10"
     gridtolerance="10"
     guidetolerance="10"
     inkscape:pageopacity="0"
     inkscape:pageshadow="2"
     inkscape:window-width="1898"
     inkscape:window-height="1026"
     id="namedview1458"
     showgrid="true"
     showguides="false"
     inkscape:zoom="5.52"
     inkscape:cx="75"
     inkscape:cy="71.959626"
     inkscape:window-x="8"
     inkscape:window-y="40"
     inkscape:window-maximized="1"
     inkscape:current-layer="Layer_1"><inkscape:grid
       type="xygrid"
       id="grid1493" /></sodipodi:namedview><circle
     style="fill:#4caf5f;fill-opacity:0.94117647"
     r="75"
     cy="75"
     cx="75"
     id="Background_54_" /><g
     aria-label=""
     style="font-style:normal;font-variant:normal;font-weight:normal;font-stretch:normal;font-size:96px;line-height:125%;font-family:'DroidSansMonoForPowerline Nerd Font';-inkscape-font-specification:'DroidSansMonoForPowerline Nerd Font';letter-spacing:0px;word-spacing:0px;fill:#ffffff;fill-opacity:0.99572646;stroke:none;stroke-width:1px;stroke-linecap:butt;stroke-linejoin:miter;stroke-opacity:1"
     id="text1491"><path
       sodipodi:type="inkscape:offset"
       inkscape:radius="0"
       inkscape:original="M 58.291016 33.882812 C 56.112444 33.882813 54.237444 34.5798 52.666016 35.972656 C 51.094587 37.365514 49.969587 39.026507 49.291016 40.955078 C 48.612444 42.847935 48.273438 44.864955 48.273438 47.007812 C 48.273438 49.614955 48.809431 52.311942 49.880859 55.097656 C 50.952287 57.883371 52.596261 60.311384 54.810547 62.382812 C 57.024833 64.418527 59.48884 65.4375 62.203125 65.4375 C 64.381696 65.4375 66.256696 64.740514 67.828125 63.347656 C 69.399554 61.9548 70.524554 60.310826 71.203125 58.417969 C 71.881696 56.489397 72.220703 54.455357 72.220703 52.3125 C 72.220703 49.669643 71.68471 46.972656 70.613281 44.222656 C 69.541853 41.436942 67.899833 39.025948 65.685547 36.990234 C 63.506976 34.918806 61.041016 33.882812 58.291016 33.882812 z M 91.720703 33.882812 C 88.970703 33.882813 86.487723 34.918806 84.273438 36.990234 C 82.094866 39.025948 80.469866 41.436942 79.398438 44.222656 C 78.327009 46.972656 77.791016 49.669643 77.791016 52.3125 C 77.791016 54.455357 78.131976 56.489397 78.810547 58.417969 C 79.489118 60.310826 80.614118 61.9548 82.185547 63.347656 C 83.756976 64.740514 85.631976 65.4375 87.810547 65.4375 C 90.524833 65.4375 92.98884 64.418526 95.203125 62.382812 C 97.417411 60.311384 99.059431 57.883371 100.13086 55.097656 C 101.20229 52.311942 101.73828 49.614955 101.73828 47.007812 C 101.73828 44.864955 101.39927 42.847935 100.7207 40.955078 C 100.04213 39.026507 98.917132 37.365514 97.345703 35.972656 C 95.774274 34.5798 93.899274 33.882812 91.720703 33.882812 z M 39.060547 59.865234 C 36.310547 59.865234 34.185547 60.937221 32.685547 63.080078 C 31.185547 65.187221 30.435547 67.668248 30.435547 70.525391 C 30.435547 73.168248 31.060547 75.882255 32.310547 78.667969 C 33.560547 81.453683 35.344587 83.847656 37.666016 85.847656 C 40.023158 87.811942 42.559151 88.792969 45.273438 88.792969 C 48.023438 88.792969 50.148438 87.739955 51.648438 85.632812 C 53.148438 83.525669 53.898438 81.044643 53.898438 78.1875 C 53.898438 75.544643 53.273438 72.828683 52.023438 70.042969 C 50.773437 67.22154 48.970425 64.82952 46.613281 62.865234 C 44.291853 60.865234 41.774833 59.865234 39.060547 59.865234 z M 110.95312 59.865234 C 108.23884 59.865234 105.70284 60.865234 103.3457 62.865234 C 101.02427 64.82952 99.238281 67.22154 97.988281 70.042969 C 96.738281 72.828683 96.113281 75.544643 96.113281 78.1875 C 96.113281 81.044643 96.863281 83.525669 98.363281 85.632812 C 99.863279 87.739955 101.98828 88.792969 104.73828 88.792969 C 107.45257 88.792969 109.96959 87.811942 112.29102 85.847656 C 114.64816 83.847656 116.45313 81.453683 117.70312 78.667969 C 118.95312 75.882255 119.57813 73.168248 119.57812 70.525391 C 119.57812 67.668248 118.82813 65.187221 117.32812 63.080078 C 115.82812 60.937221 113.70313 59.865234 110.95312 59.865234 z M 75.005859 76.740234 C 71.827287 76.740234 68.380301 77.793248 64.666016 79.900391 C 60.95173 82.007533 57.595703 84.615514 54.595703 87.722656 C 51.631418 90.8298 49.148438 94.276786 47.148438 98.0625 C 45.148438 101.8125 44.148438 105.22154 44.148438 108.29297 C 44.148438 113.50726 47.417411 116.11523 53.953125 116.11523 C 56.595982 116.11523 60.166016 115.31222 64.666016 113.70508 C 69.20173 112.13365 72.648716 111.34766 75.005859 111.34766 C 77.255859 111.34766 80.505859 112.15067 84.755859 113.75781 C 89.041573 115.36495 92.399554 116.16797 94.828125 116.16797 C 96.36384 116.16797 97.719866 116.06194 98.898438 115.84766 C 100.07701 115.66908 101.22098 115.3111 102.32812 114.77539 C 103.47098 114.27539 104.34598 113.47238 104.95312 112.36523 C 105.56027 111.29381 105.86328 109.93583 105.86328 108.29297 C 105.86328 104.18583 104.22126 99.651785 100.93555 94.6875 C 97.649834 89.6875 93.558873 85.45452 88.666016 81.990234 C 83.773158 78.490234 79.220145 76.740234 75.005859 76.740234 z "
       id="path869"
       d="m 58.291016,33.882812 c -2.178572,10e-7 -4.053572,0.696988 -5.625,2.089844 -1.571429,1.392858 -2.696429,3.053851 -3.375,4.982422 -0.678572,1.892857 -1.017578,3.909877 -1.017578,6.052734 0,2.607143 0.535993,5.30413 1.607421,8.089844 1.071428,2.785715 2.715402,5.213728 4.929688,7.285156 2.214286,2.035715 4.678293,3.054688 7.392578,3.054688 2.178571,0 4.053571,-0.696986 5.625,-2.089844 1.571429,-1.392856 2.696429,-3.03683 3.375,-4.929687 0.678571,-1.928572 1.017578,-3.962612 1.017578,-6.105469 0,-2.642857 -0.535993,-5.339844 -1.607422,-8.089844 -1.071428,-2.785714 -2.713448,-5.196708 -4.927734,-7.232422 -2.178571,-2.071428 -4.644531,-3.107422 -7.394531,-3.107422 z m 33.429687,0 c -2.75,10e-7 -5.23298,1.035994 -7.447265,3.107422 -2.178572,2.035714 -3.803572,4.446708 -4.875,7.232422 -1.071429,2.75 -1.607422,5.446987 -1.607422,8.089844 0,2.142857 0.34096,4.176897 1.019531,6.105469 0.678571,1.892857 1.803571,3.536831 3.375,4.929687 1.571429,1.392858 3.446429,2.089844 5.625,2.089844 2.714286,0 5.178293,-1.018974 7.392578,-3.054688 2.214286,-2.071428 3.856306,-4.499441 4.927735,-7.285156 1.07143,-2.785714 1.60742,-5.482701 1.60742,-8.089844 0,-2.142857 -0.33901,-4.159877 -1.01758,-6.052734 -0.67857,-1.928571 -1.803568,-3.589564 -3.374997,-4.982422 -1.571429,-1.392856 -3.446429,-2.089844 -5.625,-2.089844 z M 39.060547,59.865234 c -2.75,0 -4.875,1.071987 -6.375,3.214844 -1.5,2.107143 -2.25,4.58817 -2.25,7.445313 0,2.642857 0.625,5.356864 1.875,8.142578 1.25,2.785714 3.03404,5.179687 5.355469,7.179687 2.357142,1.964286 4.893135,2.945313 7.607422,2.945313 2.75,0 4.875,-1.053014 6.375,-3.160157 1.5,-2.107143 2.25,-4.588169 2.25,-7.445312 0,-2.642857 -0.625,-5.358817 -1.875,-8.144531 -1.250001,-2.821429 -3.053013,-5.213449 -5.410157,-7.177735 -2.321428,-2 -4.838448,-3 -7.552734,-3 z m 71.892573,0 c -2.71428,0 -5.25028,1 -7.60742,3 -2.32143,1.964286 -4.107419,4.356306 -5.357419,7.177735 -1.25,2.785714 -1.875,5.501674 -1.875,8.144531 0,2.857143 0.75,5.338169 2.25,7.445312 1.499998,2.107143 3.624999,3.160157 6.374999,3.160157 2.71429,0 5.23131,-0.981027 7.55274,-2.945313 2.35714,-2 4.16211,-4.393973 5.4121,-7.179687 1.25,-2.785714 1.87501,-5.499721 1.875,-8.142578 0,-2.857143 -0.74999,-5.33817 -2.25,-7.445313 -1.5,-2.142857 -3.62499,-3.214844 -6.375,-3.214844 z m -35.947261,16.875 c -3.178572,0 -6.625558,1.053014 -10.339843,3.160157 -3.714286,2.107142 -7.070313,4.715123 -10.070313,7.822265 -2.964285,3.107144 -5.447265,6.55413 -7.447265,10.339844 -2,3.75 -3,7.15904 -3,10.23047 0,5.21429 3.268973,7.82226 9.804687,7.82226 2.642857,0 6.212891,-0.80301 10.712891,-2.41015 4.535714,-1.57143 7.9827,-2.35742 10.339843,-2.35742 2.25,0 5.5,0.80301 9.75,2.41015 4.285714,1.60714 7.643695,2.41016 10.072266,2.41016 1.535715,0 2.891741,-0.10603 4.070313,-0.32031 1.178572,-0.17858 2.322542,-0.53656 3.429682,-1.07227 1.14286,-0.5 2.01786,-1.30301 2.625,-2.41016 0.60715,-1.07142 0.91016,-2.4294 0.91016,-4.07226 0,-4.10714 -1.64202,-8.641185 -4.92773,-13.60547 -3.285716,-5 -7.376677,-9.23298 -12.269534,-12.697266 -4.892858,-3.5 -9.445871,-5.25 -13.660157,-5.25 z" /></g></svg>